<svg xmlns="http://www.w3.org/2000/svg" xml:space="preserve" width="10mm" height="10mm" version="1.1" style="shape-rendering:geometricPrecision; text-rendering:geometricPrecision; image-rendering:optimizeQuality; fill-rule:evenodd; clip-rule:evenodd"
viewBox="0 0 8890.02 8890.02">
 <defs>
  <style type="text/css">
   <![CDATA[
    .str0 {stroke:#2B2A29;stroke-width:423.33;stroke-miterlimit:22.9256}
    .fil0 {fill:none}
    .fil1 {fill:#2B2A29}
   ]]>
  </style>
 </defs>
 <g id="Layer_x0020_1">
  <metadata id="CorelCorpID_0Corel-Layer"/>
  <circle class="fil0 str0" cx="4445.01" cy="4445.01" r="4233.34"/>
  <path class="fil1" d="M3309.42 4693.09l0 -201.78 -201.69 0 0 201.78 201.69 0zm0 -269.08l0 -201.78 -201.69 0 0 201.78 201.69 0zm-268.99 -201.78l-201.78 0 0 201.78 201.78 0 0 -201.78zm-201.78 269.08l0 201.78 201.78 0 0 -201.78 -201.78 0zm-67.3 -269.08l-206.37 0 0 201.78 206.37 0 0 -201.78zm-206.37 269.08l0 201.78 206.37 0 0 -201.78 -206.37 0zm-67.3 -269.08l-672.79 0 0 201.78 672.79 0 0 -201.78zm-672.79 269.08l0 201.78 672.79 0 0 -201.78 -672.79 0zm-67.3 -269.08l-196.92 0 0 201.78 196.92 0 0 -201.78zm-196.92 269.08l0 201.78 196.92 0 0 -201.78 -196.92 0zm-67.21 -724.54l0 -15.38 -201.78 0 0 142.16 201.69 0 0 -126.78 0.09 0zm-201.78 194.08l0 194.08 201.69 0 0 -194.08 -201.69 0zm0 261.38l0 201.78 201.69 0 0 -201.78 -201.69 0zm0 269.08l0 201.78 201.69 0 0 -201.78 -201.69 0zm0 1614.18l0.29 66.75 66.91 0.54 67.3 0 0 -134.5 -134.5 0 0 67.21zm1815.88 -610.92l0.17 72.87 -0.45 71.37 211.66 0 0 -143.93 -143.93 0 -67.45 -0.31zm1210.77 -1339.64l0 -134.48 -134.49 0 0 134.48 134.49 0zm-134.49 2555.91l134.49 0 0 -134.49 -134.49 0 0 134.49zm3228.53 -1546.98l0 -134.49 -134.5 0 0 134.49 134.5 0zm-2219.62 -1143.41l0 134.48 134.5 0 0 -134.48 -134.5 0zm403.57 134.48l0 -134.48 -134.49 0 0 134.48 134.49 0zm538.06 874.44l-134.5 0 0 134.49 134.5 0 0 -134.49zm-3026.65 -1412.48l134.49 0 0 -134.49 -134.49 0 0 134.49zm4170.14 2555.89l134.5 0 0 -134.5 -134.5 0 0 134.5zm-1277.99 0l134.5 0 0 -134.5 -134.5 0 0 134.5zm-403.56 -1008.92l0 -134.49 -134.49 0 0 134.49 134.49 0zm-1412.48 1008.92l134.49 0 0 -134.5 -134.49 0 0 134.5zm134.49 -2690.38l-134.49 0 0 134.49 134.49 0 0 -134.49zm-672.55 2690.38l134.5 0 0 -134.5 -134.5 0 0 134.5zm1546.97 -2555.89l134.5 0 0 -134.49 -134.5 0 0 134.49zm269.08 0l134.49 0 0 -134.49 -134.49 0 0 134.49zm-874.42 1546.97l0 -134.49 -134.49 0 0 134.49 134.49 0zm2690.46 739.85l134.5 0 0 -134.49 -134.5 0 0 134.49zm-1277.99 0l134.5 0 0 -134.49 -134.5 0 0 134.49zm-1816.04 -739.85l134.49 0 0 -134.49 -134.49 0 0 134.49zm1277.99 739.85l134.49 0 0 -134.49 -134.49 0 0 134.49zm672.55 -1748.78l0 -134.48 -134.5 0 0 134.48 134.5 0zm-2488.6 1748.78l134.5 0 0 -134.49 -134.5 0 0 134.49zm134.5 -739.85l0 -134.49 -134.5 0 0 134.49 134.5 0zm-2488.6 739.85l134.5 0 0 -134.49 -134.5 0 0 134.49zm2085.04 -739.85l134.49 0 0 -134.49 -134.49 0 0 134.49zm2757.66 -1546.97l0 -134.49 -134.5 0 0 134.49 134.5 0zm134.58 0l134.5 0 0 -134.49 -134.5 0 0 134.49zm-3632.09 1546.97l134.48 0 0 -134.49 -134.48 0 0 134.49zm-807.13 0l134.49 0 0 -134.49 -134.49 0 0 134.49zm5582.63 -1681.46l-134.5 0 0 134.49 134.5 0 0 -134.49zm-3766.59 941.61l134.5 0 0 -134.48 -134.5 0 0 134.48zm4439.23 201.8l134.49 0 0 -134.5 -134.49 0 0 134.5zm-807.14 -605.36l0 134.48 134.5 0 0 -134.48 -134.5 0zm-3632.09 -1614.26l134.5 0 0 -134.5 -134.5 0 0 134.5zm538.06 201.79l134.49 0 0 -134.49 -134.49 0 0 134.49zm-2892.16 269.07l134.5 0 0 -134.5 -134.5 0 0 134.5zm2354.1 0l134.5 0 0 -134.5 -134.5 0 0 134.5zm538.06 0l134.49 0 0 -134.5 -134.49 0 0 134.5zm3094.03 2555.89l134.5 0 0 -134.5 -134.5 0 0 134.5zm-1008.91 0l134.5 0 0 -134.5 -134.5 0 0 134.5zm-269.08 0l134.5 0 0 -134.5 -134.5 0 0 134.5zm-538.05 -2555.89l134.49 0 0 -134.5 -134.49 0 0 134.5zm0 2555.89l134.49 0 0 -134.5 -134.49 0 0 134.5zm-269.08 0l134.5 0 0 -134.5 -134.5 0 0 134.5zm-605.34 -134.5l-134.49 0 0 134.5 134.49 0 0 -134.5zm-269.08 134.5l0 -134.5 -134.49 0 0 134.5 134.49 0zm1681.55 -2555.89l134.5 0 0 -134.5 -134.5 0 0 134.5zm1277.99 0l134.5 0 0 -134.5 -134.5 0 0 134.5zm-5448.13 2555.89l134.49 0 0 -134.5 -134.49 0 0 134.5zm2354.1 2017.74l134.49 0 0 -134.5 -134.49 0 0 134.5zm-2892.16 -4035.58l134.5 0 0 -134.49 -134.5 0 0 134.49zm672.55 739.83l0 -134.48 -134.49 0 0 134.48 134.49 0zm1143.5 -739.83l134.49 0 0 -134.49 -134.49 0 0 134.49zm538.05 0l134.5 0 0 -134.49 -134.5 0 0 134.49zm807.14 0l134.49 0 0 -134.49 -134.49 0 0 134.49zm-1681.57 739.83l0 -134.48 -134.48 0 0 134.48 134.48 0zm1008.93 -134.48l-134.5 0 0 134.48 134.5 0 0 -134.48zm1681.55 -605.35l134.49 0 0 -134.49 -134.49 0 0 134.49zm538.05 2219.62l134.5 0 0 -134.58 -134.5 0 0 134.58zm-2354.1 -874.42l0 134.57 134.5 0 0 -134.57 -134.5 0zm0 1883.33l134.5 0 0 -134.58 -134.5 0 0 134.58zm-1546.97 -1748.76l134.5 0 0 -134.57 -134.5 0 0 134.57zm2085.03 1546.98l134.49 0 0 -134.58 -134.49 0 0 134.58zm1546.98 -269.07l134.57 0 0 -134.5 -134.57 0 0 134.5zm-1816.05 0l134.57 0 0 -134.5 -134.57 0 0 134.5zm269.07 -1277.91l134.49 0 0 -134.57 -134.49 0 0 134.57zm1546.98 1008.84l134.57 0 0 -134.49 -134.57 0 0 134.49zm-1816.05 0l134.57 0 0 -134.49 -134.57 0 0 134.49zm-2354.1 0l134.57 0 0 -134.49 -134.57 0 0 134.49zm403.56 -1143.41l-134.49 0 0 134.57 134.49 0 0 -134.57zm5717.2 -605.37l0 -134.48 -134.57 0 0 134.48 134.57 0zm-1816.04 0l0 -134.48 -134.57 0 0 134.48 134.57 0zm-1816.05 0l0 -134.48 -134.57 0 0 134.48 134.57 0zm3228.53 1479.79l134.5 0 0 -134.58 -134.5 0 0 134.58zm268.99 -470.86l134.57 0 0 -134.49 -134.57 0 0 134.49zm-1143.4 -1277.9l0 -134.57 -134.5 0 0 134.57 134.5 0zm-941.63 -134.57l0 134.57 134.49 0 0 -134.57 -134.49 0zm-1277.99 -2152.25l134.49 0 0 -134.57 -134.49 0 0 134.57zm269.08 2286.82l134.49 0 0 -134.57 -134.49 0 0 134.57zm-807.14 1748.76l134.5 0 0 -134.58 -134.5 0 0 134.58zm538.06 -1748.76l134.49 0 0 -134.57 -134.49 0 0 134.57zm-672.63 0l0 -134.57 -134.49 0 0 134.57 134.49 0zm-874.34 0l134.48 0 0 -134.57 -134.48 0 0 134.57zm4909.99 1546.98l134.57 0 0 -134.5 -134.57 0 0 134.5zm-5717.12 -1546.98l134.49 0 0 -134.57 -134.49 0 0 134.57zm2892.17 1546.98l134.57 0 0 -134.5 -134.57 0 0 134.5zm-807.14 0l134.57 0 0 -134.5 -134.57 0 0 134.5zm3363.1 -1681.55l0 134.57 134.5 0 0 -134.57 -134.5 0zm-5582.63 1681.55l0 -134.5 -134.57 0 0 134.5 134.57 0zm4439.14 -1681.55l-134.5 0 0 134.57 134.5 0 0 -134.57zm-2488.6 134.57l134.5 0 0 -134.57 -134.5 0 0 134.57zm1210.7 -269.07l0 -134.49 -134.57 0 0 134.49 134.57 0zm-807.14 0l0 -134.49 -134.57 0 0 134.49 134.57 0zm-2488.67 0l134.57 0 0 -134.49 -134.57 0 0 134.49zm4170.15 -201.79l134.57 0 0 -134.49 -134.57 0 0 134.49zm-1816.05 0l134.57 0 0 -134.49 -134.57 0 0 134.49zm3363.1 -268.98l134.5 0 0 -134.58 -134.5 0 0 134.58zm-1277.99 0l134.5 0 0 -134.58 -134.5 0 0 134.58zm-538.05 0l134.49 0 0 -134.58 -134.49 0 0 134.58zm-605.35 1883.25l-134.57 0 0 134.49 134.57 0 0 -134.49zm-807.14 134.49l0 -134.49 -134.57 0 0 134.49 134.57 0zm403.58 -2017.74l134.49 0 0 -134.58 -134.49 0 0 134.58zm-269.08 0l134.49 0 0 -134.58 -134.49 0 0 134.58zm-2623.17 1883.25l0 134.49 134.57 0 0 -134.49 -134.57 0zm2085.11 -1883.25l134.5 0 0 -134.58 -134.5 0 0 134.58zm-2354.1 0l134.5 0 0 -134.58 -134.5 0 0 134.58zm4573.71 2017.74l0 -134.49 -134.57 0 0 134.49 134.57 0zm-134.57 -2286.81l134.57 0 0 -134.5 -134.57 0 0 134.5zm-1816.05 0l134.57 0 0 -134.5 -134.57 0 0 134.5zm1816.05 -470.86l134.57 0 0 -134.5 -134.57 0 0 134.5zm-1546.98 -67.2l134.49 0 0 -134.58 -134.49 0 0 134.58zm3901.17 2555.88l134.49 0 0 -134.57 -134.49 0 0 134.57zm-269.08 0l134.49 0 0 -134.57 -134.49 0 0 134.57zm-1816.05 0l134.5 0 0 -134.57 -134.5 0 0 134.57zm-538.05 -134.57l0 134.57 134.49 0 0 -134.57 -134.49 0zm-269.08 134.57l134.5 0 0 -134.57 -134.5 0 0 134.57zm538.07 1748.76l134.57 0 0 -134.58 -134.57 0 0 134.58zm-4170.15 -3497.51l134.57 0 0 -134.58 -134.57 0 0 134.58zm4170.15 0l134.57 0 0 -134.58 -134.57 0 0 134.58zm-4035.58 605.27l-134.57 0 0 15.38 0 119.19 134.57 0 0 -134.57zm4035.58 134.57l134.57 0 0 -134.57 -134.57 0 0 134.57zm0 1748.76l134.57 0 0 -134.58 -134.57 0 0 134.58zm-1816.05 0l134.57 0 0 -134.58 -134.57 0 0 134.58zm807.14 0l134.57 0 0 -134.58 -134.57 0 0 134.58zm-807.14 -2488.6l134.57 0 0 -134.58 -134.57 0 0 134.58zm1816.05 1748.75l134.57 0 0 -134.57 -134.57 0 0 134.57zm-1816.05 0l134.57 0 0 -134.57 -134.57 0 0 134.57zm-1546.98 0l129.89 0 0 -134.57 -129.89 0 0 134.57zm-807.12 -134.57l0 134.57 134.57 0 0 -134.57 -134.57 0zm5986.19 -874.34l134.57 0 0 -134.57 -134.57 0 0 134.57zm-3497.52 -134.57l-134.57 0 0 134.57 134.57 0 0 -134.57zm-2421.38 1816.05l-67.29 0 0 134.48 134.57 0 0 -201.78 -67.28 0 0 67.3zm1681.46 -538.07l-201.69 0 0 134.49 201.69 0 0 -134.49zm-201.69 403.57l201.69 0 0 -134.5 -201.69 0 0 134.5zm201.69 -1412.49l-201.69 0 0 134.48 201.69 0 0 -134.48zm874.42 1950.55l134.49 0 0 -201.78 -134.49 0 0 201.78zm1277.99 -269.08l134.49 0 0 -201.78 -134.49 0 0 201.78zm-1277.99 0l134.49 0 0 -201.78 -134.49 0 0 201.78zm3766.58 -1008.83l0 -201.78 -134.49 0 0 201.78 134.49 0zm-1546.96 -538.16l0 -134.48 -201.8 0 0 134.48 201.8 0zm-4910.09 605.37l-201.69 0 0 134.57 0 134.5 0 134.49 201.69 0 0 -403.56zm2152.41 672.64l134.5 0 0 -201.79 -134.5 0 0 201.79zm672.55 -941.63l-134.49 0 0 201.78 134.49 0 0 -201.78zm3632.09 -269.08l-134.49 0 0 201.78 134.49 0 0 -201.78zm-3363.01 -739.83l-134.49 0 0 201.78 134.49 0 0 -201.78zm1883.33 1681.46l201.78 0 0 -134.49 -201.78 0 0 134.49zm-67.28 -134.49l-201.8 0 0 134.49 201.8 0 0 -134.49zm-2623.18 -1546.97l-134.5 0 0 201.78 134.5 0 0 -201.78zm1412.47 1681.46l201.79 0 0 -134.49 -201.79 0 0 134.49zm-269.06 0l201.78 0 0 -134.49 -201.78 0 0 134.49zm-2085.04 0l201.78 0 0 -134.49 -201.78 0 0 134.49zm-1816.05 0l201.78 0 0 -134.49 -201.78 0 0 134.49zm3161.24 -1748.76l134.49 0 0 -201.78 -134.49 0 0 201.78zm134.49 1008.91l0 -201.78 -134.49 0 0 201.78 134.49 0zm-1008.91 -538.05l0 -134.57 -201.69 0 0 134.57 201.69 0zm0 1008.91l0 -134.57 -201.69 0 0 134.57 201.69 0zm4372.01 67.21l0 -201.78 -134.57 0 0 201.78 134.57 0zm-6389.75 672.64l201.78 0 0 -134.58 -201.78 0 0 134.58zm-269.08 -1748.76l201.78 0 0 -134.57 -201.78 0 0 134.57zm4708.22 1546.98l134.57 0 0 -201.79 -134.57 0 0 201.79zm-2892.17 -1546.98l201.78 0 0 -134.57 -201.78 0 0 134.57zm2354.1 0l201.79 0 0 -134.57 -201.79 0 0 134.57zm1277.99 0l201.78 0 0 -134.57 -201.78 0 0 134.57zm807.13 874.34l0 134.57 201.78 0 0 -134.57 -201.78 0zm-2354.18 -874.34l201.78 0 0 -134.57 -201.78 0 0 134.57zm-67.21 0l0 -134.57 -201.78 0 0 134.57 201.78 0zm1546.98 1008.91l0 -134.57 -201.8 0 0 134.57 201.8 0zm-2354.12 -672.64l-134.57 0 0 201.78 134.57 0 0 -201.78zm0 470.86l0 -201.78 -134.57 0 0 201.78 134.57 0zm605.36 201.78l201.78 0 0 -134.57 -201.78 0 0 134.57zm3026.73 -672.64l-134.57 0 0 201.78 134.57 0 0 -201.78zm-3295.8 672.64l201.78 0 0 -134.57 -201.78 0 0 134.57zm3295.8 -201.78l0 -201.78 -134.57 0 0 201.78 134.57 0zm-1816.04 -1210.69l-134.57 0 0 201.78 134.57 0 0 -201.78zm-941.7 1412.47l201.78 0 0 -134.57 -201.78 0 0 134.57zm-470.77 -874.42l-67.29 0 0 134.48 201.78 0 0 -194.08 -134.49 0 0 59.6zm-672.64 672.64l0 -67.28 67.28 0 0 -134.5 -201.78 0 0 201.78 134.5 0zm-2219.61 -732.24l0 194.08 196.92 0 0 -134.48 -62.35 0 0 -59.6 -134.57 0zm3295.81 194.08l0 -194.08 -134.57 0 0 59.6 -67.21 0 0 134.48 201.78 0zm-1277.98 0l0 -194.08 -201.78 0 0 194.08 201.78 0zm-538.07 0l0 -194.08 -201.78 0 0 194.08 201.78 0zm-1748.75 -470.75l201.78 0 0 -201.78 -201.78 0 0 201.78zm6927.82 538.05l-201.79 0 0 201.78 201.79 0 0 -201.78zm-1008.91 0l-201.79 0 0 201.78 201.79 0 0 -201.78zm-538.07 470.86l0 -201.78 -201.78 0 0 201.78 201.78 0zm-3295.8 268.99l201.78 0 0 -201.78 -201.78 0 0 201.78zm3564.79 -739.85l-201.78 0 0 201.78 201.78 0 0 -201.78zm-268.99 0l-201.78 0 0 201.78 201.78 0 0 -201.78zm-1479.77 0l0 201.78 201.79 0 0 -201.78 -201.79 0zm1748.76 470.86l0 -201.78 -201.78 0 0 201.78 201.78 0zm-5918.91 0l201.78 0 0 -201.78 -201.78 0 0 201.78zm2555.9 -470.86l-201.78 0 0 201.78 201.78 0 0 -201.78zm-2354.12 0l-201.78 0 0 201.78 201.78 0 0 -201.78zm-269.06 0l-163.23 0 -38.55 0 0 201.78 201.78 0 0 -201.78zm336.36 1210.71l201.69 0 0 -201.79 -201.69 0 0 201.79zm5179.06 -470.86l201.78 0 0 -201.78 -201.78 0 0 201.78zm201.78 -807.15l0 -194.08 -201.78 0 0 194.08 201.78 0zm-1277.98 538.16l0 -201.78 -201.79 0 0 201.78 201.79 0zm-269.07 -538.16l0 -194.08 -201.78 0 0 194.08 201.78 0zm336.36 538.16l673.48 0 0 -201.78 -673.48 0 0 201.78zm-4506.51 0l0 -201.78 -201.78 0 0 201.78 201.78 0zm67.28 268.99l201.78 0 0 -201.78 -201.78 0 0 201.78zm2555.9 -268.99l0 -201.78 -201.78 0 0 201.78 201.78 0zm-1008.91 268.99l201.76 0 0 -201.78 -201.76 0 0 201.78zm3833.87 -268.99l0 -201.78 -201.8 0 0 201.78 201.8 0zm-3564.81 268.99l201.78 0 0 -201.78 -201.78 0 0 201.78zm-1614.27 -807.15l0 -194.08 -201.78 0 0 194.08 201.78 0zm5178.32 67.3l-940.87 0 0 201.78 940.87 0 0 -201.78zm-1277.23 470.86l0 -201.78 -201.78 0 0 201.78 201.78 0zm0 -269.08l0 -201.78 -201.78 0 0 201.78 201.78 0zm2354.18 269.08l0 -201.78 -201.78 0 0 201.78 201.78 0zm0 -269.08l0 -201.78 -201.78 0 0 201.78 201.78 0zm-2623.17 -201.78l-201.78 0 0 201.78 201.78 0 0 -201.78zm-201.78 269.08l0 201.78 201.78 0 0 -201.78 -201.78 0zm-269.07 201.78l201.78 0 0 -201.78 -201.78 0 0 201.78zm201.78 -269.08l0 -201.78 -201.78 0 0 201.78 201.78 0z"/>
 </g>
</svg>
